<svg width="88" height="44" fill="none" xmlns="http://www.w3.org/2000/svg"><g clip-path="url(#clip0_4410_205785)"><path d="M8.15 40.94s-.02-.01-.03-.02c.01 0 .02.01.03.02z" fill="#FECD66"/><path d="M48.53 5.63h3.32v13.81h-3.32v-5.66h-5.64v5.66h-3.32V5.63h3.32V11h5.64V5.63zm15.69 6.16c.47.79.7 1.69.7 2.7 0 1.01-.23 1.94-.7 2.73s-1.13 1.41-1.97 1.85c-.84.44-1.82.67-2.93.67s-2.08-.22-2.93-.67c-.84-.44-1.5-1.06-1.97-1.85s-.7-1.7-.7-2.71.23-1.94.7-2.72c.47-.79 1.13-1.4 1.97-1.84.84-.44 1.82-.67 2.93-.67s2.08.22 2.93.67c.84.44 1.5 1.06 1.97 1.84zm-2.66 2.73c0-.5-.09-.95-.28-1.33-.19-.39-.45-.69-.78-.91-.33-.22-.73-.33-1.18-.33-.45 0-.83.11-1.17.33-.34.22-.61.52-.79.91-.19.39-.28.83-.28 1.33 0 .5.09.95.28 1.33.19.39.45.69.79.91.34.22.73.33 1.17.33.44 0 .84-.11 1.18-.33.33-.22.6-.52.78-.91.19-.39.28-.83.28-1.33zm5.02 4.92h3.26V5.54h-3.26v13.9zm5.23 0h3.26V5.54h-3.26v13.9zm12.77-9.85l-2.45 6.66-2.43-6.66h-3.34l4.19 9.85-.04.12c-.14.36-.34.62-.61.77-.26.15-.58.23-.96.23H77.7v2.63h1.47c1.02 0 1.86-.25 2.54-.74.68-.5 1.23-1.25 1.65-2.25l4.48-10.6h-3.26v-.01zM17.97 20.51c1.12 0 2.21-.02 3.26-.07l-1.01 21.79c-.77.03-1.43.05-2.25.05-.82 0-1.48-.02-2.24-.05l-1.01-21.79c1.05.04 2.14.07 3.26.07h-.01zm14.33-1.82l-3.84 21.47-.09.49s-1.87.92-3.94 1.22l.37-2.98 2.35-18.96c2.25-.32 4.05-.74 5.14-1.24h.01zM8.79 19.93l2.35 18.96.37 2.98c-2.07-.29-3.94-1.22-3.94-1.22l-.09-.49-3.84-21.47c1.09.5 2.89.92 5.14 1.24h.01z" fill="#FECD66"/><path d="M64.58 28.01c-.55 1.3-1.18 2.64-1.88 4.04a82.33 82.33 0 01-2.24 4.13c-.79 1.36-1.54 2.57-2.26 3.65-.72 1.08-1.38 1.94-1.97 2.59-.59.65-1.04.97-1.35.95-.4-.02-.8-.1-1.18-.24a3.851 3.851 0 01-1.87-1.45c-.23-.33-.38-.7-.45-1.1-.05-.27-.05-.68 0-1.22.05-.54.12-1.11.22-1.71.1-.6.21-1.2.34-1.8.13-.59.24-1.09.34-1.49-.22.46-.48 1.01-.78 1.67-.3.66-.61 1.34-.93 2.05-.33.71-.66 1.42-1.02 2.12-.35.7-.7 1.34-1.04 1.9-.34.56-.68 1.02-1.02 1.37-.34.34-.66.53-.95.54-.42.02-.82-.07-1.19-.24-.37-.18-.71-.41-1-.71-.29-.29-.54-.63-.73-1.02-.2-.39-.32-.79-.38-1.21-.04-.29 0-.7.13-1.21.12-.51.29-1.09.49-1.74.21-.65.44-1.33.71-2.04.27-.71.54-1.41.81-2.08.27-.68.53-1.3.77-1.88.24-.57.45-1.05.61-1.44.33-.82.68-1.7 1.03-2.64.35-.94.63-1.8.83-2.59.2-.79.28-1.44.25-1.97-.03-.53-.25-.8-.65-.8-.46 0-.98.2-1.57.59-.59.4-1.18.93-1.78 1.59-.6.66-1.19 1.42-1.76 2.27-.57.85-1.07 1.71-1.5 2.58-.43.88-.75 1.72-.98 2.55-.23.82-.3 1.54-.23 2.17a1.118 1.118 0 00.74.99c.2.07.42.1.67.07.25-.03.51-.11.78-.26-.11.27-.34.5-.69.68-.35.18-.74.29-1.17.32-.43.03-.86 0-1.3-.13-.44-.12-.81-.35-1.11-.68-.3-.33-.49-.78-.58-1.33-.09-.56 0-1.25.29-2.07.26-.8.61-1.64 1.03-2.5.43-.87.91-1.7 1.46-2.52.54-.81 1.14-1.57 1.79-2.28.64-.71 1.32-1.33 2.03-1.87.71-.53 1.43-.95 2.16-1.23a5.52 5.52 0 012.2-.4c.71.04 1.25.24 1.62.59.36.35.61.8.73 1.36s.14 1.2.06 1.92c-.09.72-.23 1.47-.44 2.23-.21.77-.45 1.53-.74 2.3-.29.77-.56 1.48-.82 2.14-.17.4-.36.89-.59 1.45-.22.57-.45 1.17-.68 1.81-.23.64-.46 1.29-.69 1.94-.22.66-.42 1.27-.59 1.83-.17.57-.29 1.07-.37 1.51-.08.44-.08.76 0 .96.09.31.26.34.52.1.26-.25.58-.68.96-1.3s.8-1.39 1.26-2.31a103.888 103.888 0 002.84-6.14c.46-1.09.9-2.13 1.3-3.09.4-.97.75-1.83 1.06-2.6.31-.77.53-1.35.66-1.75.07-.2.22-.33.43-.38.21-.05.44-.06.7-.02.26.04.52.12.81.25.28.13.52.28.72.44.2.17.34.35.44.54.09.19.08.38-.03.56-.5 1.17-.95 2.37-1.36 3.6a55.361 55.361 0 00-1.76 6.8 43.57 43.57 0 00-.42 2.59c-.09.72-.11 1.28-.08 1.66.03.38.13.52.3.41.42-.29.92-.8 1.48-1.53.56-.73 1.14-1.59 1.75-2.58.6-.99 1.2-2.08 1.81-3.25.6-1.18 1.16-2.36 1.66-3.56.5-1.19.93-2.35 1.29-3.48.35-1.12.59-2.13.72-3.01.12-.89.1-1.61-.07-2.18-.17-.57-.53-.89-1.08-.97.26-.24.65-.29 1.17-.17.52.12 1.01.4 1.48.83.46.43.83 1 1.09 1.71.26.71.26 1.53 0 2.46-.26.93-.67 2.05-1.22 3.34l-.04.02zm1.55 1.41c.15.13.34.23.55.29.21.07.42.09.63.07.21-.02.37-.1.48-.24.09-.16.2-.36.33-.57.13-.22.26-.44.39-.67.13-.23.25-.45.38-.66.12-.21.21-.37.26-.48.11-.18.08-.37-.11-.55-.18-.18-.41-.33-.7-.44a2.34 2.34 0 00-.86-.16c-.29 0-.49.09-.61.26-.06.11-.13.26-.22.47-.09.2-.19.42-.28.67-.09.25-.18.51-.27.79-.08.28-.15.55-.18.81-.02.15.05.28.2.41h.01zm14.73 3.49c-.09-.1-.2-.19-.34-.26a1.33 1.33 0 00-.41-.14c-.14-.02-.23.04-.29.16-.3.55-.63 1.09-1 1.64-.37.55-.75 1.06-1.15 1.53-.4.47-.8.89-1.2 1.25-.41.36-.78.64-1.13.84 0-.38.09-.85.26-1.4.17-.55.36-1.12.59-1.71.22-.59.46-1.16.7-1.7.24-.54.44-.99.59-1.35.09-.22.06-.44-.09-.67-.15-.23-.37-.43-.64-.59-.27-.17-.57-.28-.89-.34-.32-.06-.59-.02-.81.1-.33.2-.67.44-1.02.73s-.69.62-1.04.98c-.34.36-.68.76-1.02 1.17-.34.42-.66.84-.96 1.26.02-.09.1-.26.24-.52l.5-.89c.19-.34.4-.7.61-1.09.21-.39.41-.78.6-1.16.06-.15 0-.32-.17-.52s-.4-.37-.67-.5-.55-.2-.84-.2c-.28 0-.49.12-.62.38-.44.77-.85 1.6-1.22 2.49a9 9 0 00-.22.55c-.39.67-.77 1.28-1.14 1.83-.46.69-.87 1.26-1.23 1.69-.36.43-.66.73-.9.89-.24.15-.39.13-.47-.07-.11-.28 0-.87.31-1.8.32-.92.91-2.2 1.78-3.84.09-.2.05-.39-.13-.58-.18-.18-.41-.33-.68-.44-.27-.11-.55-.17-.84-.17-.28 0-.47.07-.56.22-.3.47-.58 1.04-.86 1.71-.28.67-.53 1.34-.77 2.03-.23.68-.42 1.33-.56 1.95-.14.62-.22 1.1-.24 1.47-.02.29.06.55.24.78.18.23.41.41.68.55.27.14.57.23.88.27.31.04.59.01.82-.08.39-.16.82-.52 1.31-1.06.27-.31.54-.63.81-.98 0 .02-.01.05-.02.07-.22.72-.39 1.3-.51 1.74-.06.16.02.33.23.5.21.17.45.3.72.39.27.09.55.14.82.13.27 0 .46-.09.55-.26.2-.42.5-.95.88-1.59a36.976 36.976 0 012.62-3.8c.46-.58.88-1.03 1.24-1.34-.06.13-.15.41-.29.84-.14.43-.28.91-.42 1.44-.14.53-.25 1.06-.33 1.59-.08.53-.08.95 0 1.26.04.18.17.37.41.55.24.18.51.33.82.44.31.11.63.18.96.21.33.03.62-.02.88-.15.39-.2.8-.53 1.26-1.01.45-.47.89-1 1.33-1.6A25.486 25.486 0 0081 33.14c.02-.05-.02-.13-.11-.23h-.03zM5.01 5.76L.37 8.75c-.11.07-.18.17-.2.29-.02.12 0 .24.07.34l3.55 5.31 1.76 2.64c.82.23 1.81.44 2.92.61l-1.22-4.32-2.23-7.87-.01.01zm30.54 2.48l-4.74-2.96-1.62 8.28-.86 4.39c.78-.12 1.49-.26 2.13-.41l1.91-3.13 3.34-5.49a.49.49 0 00-.17-.67l.01-.01zM6.44 3.07c-.12.03-.22.11-.28.22-.06.11-.07.23-.04.35l2.76 9.72.93 3.28.68-3.49 2.29-11.76-6.34 1.68zm23.08.29l-1.94 9.94-.95 4.88c-.66.08-1.34.15-2.06.21-1.87.14-4.03.24-6.42.24-2.52 0-4.9-.13-7-.34l1.04-5.32L14.64.45c.03-.15.11-.27.23-.35.12-.08.27-.11.42-.08l13.79 2.7c.3.06.5.35.44.65v-.01zm-4.07 9.69c.65-1.92-.92-4.86-3.85-9.17h-.02c-5.65 3.69-8.34 6.14-6.55 8.77.04.06.08.1.13.15 1.16 1.54 2.67 1.26 3.6.87-.14.35-.35.73-.67 1.13-.54.7-1.32 1.15-1.32 1.15l2.25.45.15.03 2.25.45s-.55-.71-.78-1.57c-.13-.5-.18-.93-.18-1.3.73.75 2.08 1.64 3.83.49.61-.4.98-.88 1.18-1.44l-.02-.01z" fill="#fff"/></g><defs><clipPath id="clip0_4410_205785"><path fill="#fff" d="M0 0h88v44H0z"/></clipPath></defs></svg>
